<?xml version="1.0"?>
<svg version="1.1" xmlns="http://www.w3.org/2000/svg" xmlns:xlink="http://www.w3.org/1999/xlink" width="500" height="110">
    <desc iVinci="yes" version="4.6" gridStep="20" showGrid="no" snapToGrid="no" codePlatform="0"/>
    <g id="Layer1" name="Layer 1" opacity="1">
        <g id="Shape1">
            <desc shapeID="1" type="0" basicInfo-basicType="0" basicInfo-roundedRectRadius="12" basicInfo-polygonSides="6" basicInfo-starPoints="5" bounding="rect(-12.5,-12.4343,25,24.8685)" text="" font-familyName="" font-pixelSize="20" font-bold="0" font-underline="0" font-alignment="1" strokeStyle="0" markerStart="0" markerEnd="0" shadowEnabled="0" shadowOffsetX="0" shadowOffsetY="2" shadowBlur="4" shadowOpacity="160" blurEnabled="0" blurRadius="4" transform="matrix(0.709648,0,0,0.709648,198.215,11.913)" pers-center="0,0" pers-size="0,0" pers-start="0,0" pers-end="0,0" locked="0" mesh="" flag=""/>
            <path id="shapePath1" d="M193.886,3.98925 C190.693,5.40854 189.344,7.67941 189.344,11.7244 C189.344,18.0403 192.183,20.7369 198.641,20.7369 C201.834,20.7369 202.544,20.4531 204.673,18.3241 C206.731,16.2661 207.086,15.4146 207.086,12.4341 C207.086,8.03424 205.879,5.76337 202.828,4.27311 C199.918,2.78284 196.938,2.71188 193.886,3.98925 Z" style="stroke:none;fill-rule:nonzero;fill:#413000;fill-opacity:1;"/>
        </g>
        <g id="Shape2">
            <desc shapeID="2" type="0" basicInfo-basicType="0" basicInfo-roundedRectRadius="12" basicInfo-polygonSides="6" basicInfo-starPoints="5" bounding="rect(-28.335,-47.9341,56.6701,95.8681)" text="" font-familyName="" font-pixelSize="20" font-bold="0" font-underline="0" font-alignment="1" strokeStyle="0" markerStart="0" markerEnd="0" shadowEnabled="0" shadowOffsetX="0" shadowOffsetY="2" shadowBlur="4" shadowOpacity="160" blurEnabled="0" blurRadius="4" transform="matrix(0.709648,0,0,0.709648,232.871,46.9471)" pers-center="0,0" pers-size="0,0" pers-start="0,0" pers-end="0,0" locked="0" mesh="" flag=""/>
            <path id="shapePath2" d="M225.82,14.8468 C224.401,21.2337 223.762,22.653 221.349,25.1367 C219.433,26.9818 217.801,27.9044 215.743,28.2592 L212.763,28.7559 L212.763,33.2267 L212.763,37.7685 L216.666,37.7685 L220.569,37.7685 L220.569,53.5226 C220.569,62.819 220.924,70.4832 221.349,72.1864 C222.414,75.8765 225.962,79.2829 229.865,80.3473 C234.194,81.5537 243.42,80.9151 248.529,79.07 C250.8,78.2184 252.787,77.4378 252.929,77.2958 C253.142,77.1539 252.645,75.1669 251.935,72.8251 C251.013,69.9865 250.303,68.7091 249.593,68.851 C246.897,69.5607 241.078,69.8445 239.375,69.4188 C236.11,68.5672 235.471,65.6576 235.471,50.897 L235.471,37.7685 L242.923,37.7685 L250.374,37.7685 L250.374,32.8009 L250.374,27.8334 L242.923,27.8334 L235.471,27.8334 L235.471,20.3821 L235.471,12.9308 L230.859,12.9308 C226.459,12.9308 226.246,13.0018 225.82,14.8468 Z" style="stroke:none;fill-rule:nonzero;fill:#413000;fill-opacity:1;"/>
        </g>
        <g id="Shape3">
            <desc shapeID="3" type="0" basicInfo-basicType="0" basicInfo-roundedRectRadius="12" basicInfo-polygonSides="6" basicInfo-starPoints="5" bounding="rect(-37.5,-53.25,75,106.5)" text="" font-familyName="" font-pixelSize="20" font-bold="0" font-underline="0" font-alignment="1" strokeStyle="0" markerStart="0" markerEnd="0" shadowEnabled="0" shadowOffsetX="0" shadowOffsetY="2" shadowBlur="4" shadowOpacity="160" blurEnabled="0" blurRadius="4" transform="matrix(0.709648,0,0,0.709648,154.217,66.6866)" pers-center="0,0" pers-size="0,0" pers-start="0,0" pers-end="0,0" locked="0" mesh="" flag=""/>
            <path id="shapePath3" d="M146.765,29.1817 C135.695,30.743 129.024,37.8394 129.024,48.2713 C129.024,53.2388 130.515,56.929 133.779,60.4062 L136.83,63.5287 L132.998,67.5737 C128.528,72.2574 127.534,75.3088 129.308,78.7861 C129.876,79.9215 130.869,81.057 131.508,81.3408 C132.36,81.6247 132.147,82.3344 130.089,85.031 C128.031,87.7277 127.605,88.8631 127.605,91.8436 C127.605,100.785 134.701,104.475 152.017,104.475 C170.184,104.475 179.622,98.4433 179.693,86.7342 C179.764,76.1604 174.868,73.2509 154.288,71.8316 C148.469,71.4058 143.572,70.98 143.359,70.8381 C143.217,70.6252 143.643,69.5607 144.353,68.3543 L145.63,66.2253 L151.378,66.6511 C161.313,67.3608 169.119,64.0964 172.881,57.7096 C175.435,53.3807 175.577,45.8585 173.235,41.8844 L171.745,39.2587 L176.287,38.8329 L180.829,38.3362 L180.829,34.2202 L180.829,30.1752 L167.913,29.6785 C160.746,29.4656 154.004,29.1108 152.797,28.9688 C151.662,28.8269 148.894,28.8979 146.765,29.1817 M158.049,40.1813 C163.371,42.9489 162.733,52.813 157.055,55.2258 C151.875,57.3548 145.417,55.5806 143.927,51.5356 C142.366,47.4906 143.643,42.5941 146.907,40.3232 C148.894,38.9039 155.352,38.8329 158.049,40.1813 M154.855,85.7407 C164.791,86.3084 167.061,88.1535 163.229,92.5533 C160.391,95.8886 143.075,96.0305 140.308,92.6952 C139.101,91.2759 139.314,88.5083 140.663,86.3084 C141.727,84.7471 142.295,84.5342 144.495,84.8891 C145.914,85.102 150.598,85.4568 154.855,85.7407 Z" style="stroke:none;fill-rule:nonzero;fill:#413000;fill-opacity:1;"/>
        </g>
        <g id="Shape4">
            <desc shapeID="4" type="0" basicInfo-basicType="0" basicInfo-roundedRectRadius="12" basicInfo-polygonSides="6" basicInfo-starPoints="5" bounding="rect(-20,-37,40.0001,74)" text="" font-familyName="" font-pixelSize="20" font-bold="0" font-underline="0" font-alignment="1" strokeStyle="0" markerStart="0" markerEnd="0" shadowEnabled="0" shadowOffsetX="0" shadowOffsetY="2" shadowBlur="4" shadowOpacity="160" blurEnabled="0" blurRadius="4" transform="matrix(0.709648,0,0,0.709648,199.279,54.8)" pers-center="0,0" pers-size="0,0" pers-start="0,0" pers-end="0,0" locked="0" mesh="" flag=""/>
            <path id="shapePath4" d="M186.151,30.1043 C186.009,31.0268 185.725,32.9429 185.654,34.5041 C185.441,37.1298 185.583,37.2717 188.28,38.1943 C189.77,38.762 191.331,39.6136 191.615,40.1103 C191.899,40.5361 192.183,47.7035 192.183,55.9355 C192.183,71.6896 192.041,72.5412 188.919,72.5412 C185.654,72.5412 185.086,73.1799 185.086,77.2249 L185.086,81.057 L199.279,81.057 L213.472,81.057 L213.472,77.1539 C213.472,73.038 213.543,73.1089 208.86,72.3993 C207.511,72.1864 207.44,71.5477 207.227,50.3292 L207.086,28.5431 L196.796,28.5431 C186.719,28.5431 186.506,28.5431 186.151,30.1043 Z" style="stroke:none;fill-rule:nonzero;fill:#413000;fill-opacity:1;"/>
        </g>
        <g id="Shape5">
            <desc shapeID="5" type="0" basicInfo-basicType="0" basicInfo-roundedRectRadius="12" basicInfo-polygonSides="6" basicInfo-starPoints="5" bounding="rect(-60.3805,-60.3805,120.761,120.761)" text="" font-familyName="Helvetica" font-pixelSize="20" font-bold="0" font-underline="0" font-alignment="1" strokeStyle="0" markerStart="0" markerEnd="0" shadowEnabled="0" shadowOffsetX="0" shadowOffsetY="2" shadowBlur="4" shadowOpacity="160" blurEnabled="0" blurRadius="4" transform="matrix(0.462423,0.466916,-0.466916,0.462423,55.5548,54.8)" pers-center="0,0" pers-size="0,0" pers-start="0,0" pers-end="0,0" locked="0" mesh="" flag=""/>
            <path id="shapePath5" d="M50.2231,4.23506 C53.3175,1.17038 58.3105,1.19452 61.3751,4.28897 L106.12,49.4683 C109.184,52.5628 109.16,57.5557 106.066,60.6204 L80.44,85.9996 L60.8865,105.365 C57.792,108.43 52.7991,108.406 49.7344,105.311 L4.98981,60.1317 C1.92513,57.0373 1.94928,52.0443 5.04372,48.9797 L50.2231,4.23506 Z" style="stroke:none;fill-rule:evenodd;fill:#f05133;fill-opacity:1;"/>
        </g>
        <g id="Shape6">
            <desc shapeID="6" type="0" basicInfo-basicType="4" basicInfo-roundedRectRadius="12" basicInfo-polygonSides="6" basicInfo-starPoints="5" bounding="rect(-9.58149,-9.5815,19.163,19.163)" text="" font-familyName="Helvetica" font-pixelSize="20" font-bold="0" font-underline="0" font-alignment="1" strokeStyle="0" markerStart="0" markerEnd="0" shadowEnabled="0" shadowOffsetX="0" shadowOffsetY="2" shadowBlur="4" shadowOpacity="160" blurEnabled="0" blurRadius="4" transform="matrix(0.846489,0,0,0.846489,55.5548,54.8)" pers-center="0,0" pers-size="0,0" pers-start="0,0" pers-end="0,0" locked="0" mesh="" flag=""/>
            <path id="shapePath6" d="M47.4441,54.8 C47.4441,50.3206 51.0754,46.6894 55.5548,46.6894 C60.0341,46.6894 63.6654,50.3206 63.6654,54.8 C63.6654,59.2794 60.0341,62.9107 55.5548,62.9107 C51.0754,62.9107 47.4441,59.2794 47.4441,54.8 Z" style="stroke:none;fill-rule:evenodd;fill:#ffffff;fill-opacity:1;"/>
        </g>
        <g id="Shape7">
            <desc shapeID="7" type="0" basicInfo-basicType="0" basicInfo-roundedRectRadius="12" basicInfo-polygonSides="6" basicInfo-starPoints="5" bounding="rect(-4.04293,-26.0797,8.08586,52.1595)" text="" font-familyName="Helvetica" font-pixelSize="20" font-bold="0" font-underline="0" font-alignment="1" strokeStyle="0" markerStart="0" markerEnd="0" shadowEnabled="0" shadowOffsetX="0" shadowOffsetY="2" shadowBlur="4" shadowOpacity="160" blurEnabled="0" blurRadius="4" transform="matrix(0.846489,0,0,1.00885,55.5548,70.0976)" pers-center="0,0" pers-size="0,0" pers-start="0,0" pers-end="0,0" locked="0" mesh="" flag=""/>
            <path id="shapePath7" d="M52.1325,43.787 L58.9771,43.787 L58.9771,90.2172 C58.9771,90.2172 55.5949,96.4083 55.5949,96.4083 C55.5949,96.4083 52.1325,90.2172 52.1325,90.2172 L52.1325,43.787 Z" style="stroke:none;fill-rule:evenodd;fill:#ffffff;fill-opacity:1;"/>
        </g>
        <g id="Shape8">
            <desc shapeID="8" type="0" basicInfo-basicType="0" basicInfo-roundedRectRadius="12" basicInfo-polygonSides="6" basicInfo-starPoints="5" bounding="rect(-4.04293,-26.0797,8.08586,52.1595)" text="" font-familyName="Helvetica" font-pixelSize="20" font-bold="0" font-underline="0" font-alignment="1" strokeStyle="0" markerStart="0" markerEnd="0" shadowEnabled="0" shadowOffsetX="0" shadowOffsetY="2" shadowBlur="4" shadowOpacity="160" blurEnabled="0" blurRadius="4" transform="matrix(-0.604134,0.592931,-0.458599,-0.467265,45.6235,45.5504)" pers-center="0,0" pers-size="0,0" pers-start="0,0" pers-end="0,0" locked="0" mesh="" flag=""/>
            <path id="shapePath8" d="M60.0261,55.3393 L55.1411,60.1337 C55.1411,60.1337 35.4423,40.0626 35.4423,40.0626 C35.4423,40.0626 33.7849,33.2449 33.7849,33.2449 C33.7849,33.2449 40.4653,35.409 40.4653,35.409 L60.0261,55.3393 Z" style="stroke:none;fill-rule:evenodd;fill:#ffffff;fill-opacity:1;"/>
        </g>
        <g id="Shape9">
            <desc shapeID="9" type="0" basicInfo-basicType="0" basicInfo-roundedRectRadius="12" basicInfo-polygonSides="6" basicInfo-starPoints="5" bounding="rect(-62.0161,-80,124.032,160)" text="" font-familyName="" font-pixelSize="20" font-bold="0" font-underline="0" font-alignment="1" strokeStyle="0" markerStart="0" markerEnd="0" shadowEnabled="0" shadowOffsetX="0" shadowOffsetY="2" shadowBlur="4" shadowOpacity="160" blurEnabled="0" blurRadius="4" transform="matrix(0.416137,0,0,0.416137,297.057,45.706)" pers-center="0,0" pers-size="0,0" pers-start="0,0" pers-end="0,0" locked="0" mesh="" flag=""/>
            <path id="shapePath9" d="M271.513,13.0808 C271.055,14.3292 271.222,19.3645 271.804,19.7806 C272.054,19.9887 273.219,20.5297 274.301,20.9042 C275.674,21.4036 276.423,21.9861 276.715,22.6936 C277.131,23.8172 276.715,65.5787 276.715,65.5787 C276.483,69.8834 272.023,70.0944 271.638,72.6144 C271.234,75.2538 271.638,78.9969 271.638,78.9969 L279.087,78.9969 C283.165,78.9969 288.533,78.8721 290.988,78.7057 L295.441,78.456 L295.316,74.8772 L295.191,71.2984 L292.278,70.8823 L289.365,70.4661 L289.24,58.4814 L289.157,46.5382 L291.488,45.0401 C294.109,43.3756 297.813,41.9191 299.602,41.8775 C301.267,41.8359 302.848,43.0011 303.764,44.9985 C304.471,46.5799 304.387,47.8712 304.554,58.8559 C304.643,64.6688 304.554,64.5204 304.554,67.3526 C304.554,69.7951 300.083,71.2984 299.602,73.3083 C299.079,75.4918 299.66,78.9969 299.66,78.9969 L310.963,78.9969 L322.864,78.9969 L322.864,75.0853 L322.864,71.1736 L320.284,70.799 L317.663,70.4661 L317.538,66.0967 C317.122,48.9935 316.706,41.6694 315.956,39.672 C314.916,36.759 311.67,33.5964 308.716,32.5976 C304.013,30.9747 298.063,31.8902 292.153,35.1361 C290.739,35.9267 289.449,36.5509 289.365,36.5509 C289.24,36.5509 289.157,31.0996 289.157,24.483 L289.157,12.415 L280.46,12.415 C272.928,12.415 271.721,12.4982 271.513,13.0808 Z" style="stroke:none;fill-rule:evenodd;fill:#413000;fill-opacity:1;"/>
        </g>
        <g id="Shape10">
            <desc shapeID="10" type="0" basicInfo-basicType="0" basicInfo-roundedRectRadius="12" basicInfo-polygonSides="6" basicInfo-starPoints="5" bounding="rect(-54.2455,-59.1478,108.491,118.296)" text="" font-familyName="" font-pixelSize="20" font-bold="0" font-underline="0" font-alignment="1" strokeStyle="0" markerStart="0" markerEnd="0" shadowEnabled="0" shadowOffsetX="0" shadowOffsetY="2" shadowBlur="4" shadowOpacity="160" blurEnabled="0" blurRadius="4" transform="matrix(0.416137,0,0,0.416137,345.438,57.5503)" pers-center="0,0" pers-size="0,0" pers-start="0,0" pers-end="0,0" locked="0" mesh="" flag=""/>
            <path id="shapePath10" d="M333.892,36.8503 C327.508,41.7847 322.864,47.7451 322.864,58.3982 C322.864,69.9668 327.575,76.5938 335.14,79.8708 C342.629,83.1146 351.583,83.0713 357.778,78.7473 C364.362,74.1523 367.713,67.4491 367.999,56.9377 C368.241,48.0494 364.902,36.1432 354.574,33.8877 C347.663,32.1559 339.402,32.5911 333.892,36.8503 M350.78,44.1807 C355.848,46.7176 355.888,52.6026 355.888,57.5503 C356.273,63.2054 353.29,71.5481 347.25,71.5481 C343.005,71.5481 340.675,70.6742 338.678,68.2606 C336.627,65.7865 335.402,62.0252 335.402,58.192 C335.402,52.6172 336.846,46.9042 340.176,44.8321 C343.754,42.6266 347.617,42.5578 350.78,44.1807 Z" style="stroke:none;fill-rule:evenodd;fill:#413000;fill-opacity:1;"/>
        </g>
        <g id="Shape11">
            <desc shapeID="11" type="0" basicInfo-basicType="0" basicInfo-roundedRectRadius="12" basicInfo-polygonSides="6" basicInfo-starPoints="5" bounding="rect(-43.4596,-56.5524,86.9192,113.105)" text="" font-familyName="" font-pixelSize="20" font-bold="0" font-underline="0" font-alignment="1" strokeStyle="0" markerStart="0" markerEnd="0" shadowEnabled="0" shadowOffsetX="0" shadowOffsetY="2" shadowBlur="4" shadowOpacity="160" blurEnabled="0" blurRadius="4" transform="matrix(0.416137,0,0,0.416137,440.364,56.5037)" pers-center="0,0" pers-size="0,0" pers-start="0,0" pers-end="0,0" locked="0" mesh="" flag=""/>
            <path id="shapePath11" d="M449.328,33.1802 C447.372,33.5548 445.916,34.2622 441.879,36.7174 C440.631,37.5081 439.466,38.049 439.341,37.9658 C439.174,37.8826 438.966,36.8839 438.8,35.7187 L438.509,33.638 C438.509,33.638 423.48,34.0917 423.48,34.0917 L422.279,41.0868 L425.234,42.044 L428.188,42.9595 L428.064,57.3578 C427.897,73.8369 427.814,74.1698 425.192,74.5443 C424.235,74.6691 423.403,74.8356 423.32,74.9604 C423.195,75.0436 423.07,76.2504 423.028,77.5821 L422.945,80.0373 L435.679,80.0373 C445.874,80.0373 448.538,79.9125 449.078,79.4547 C449.619,79.0386 449.786,78.2063 449.786,76.2504 C449.786,73.1294 449.287,72.5052 446.54,72.1307 C445.458,71.9642 443.752,71.7145 442.712,71.5481 L440.839,71.2984 L440.589,67.5532 C440.423,65.4725 440.298,60.1459 440.256,55.6516 L440.215,47.4954 L442.004,46.247 C442.961,45.5395 444.376,44.6656 445.167,44.2495 C446.79,43.4172 447.081,43.6669 447.456,46.2886 C447.913,49.2431 447.955,49.2431 453.406,49.2431 L458.317,49.2431 L458.442,41.5862 C458.483,37.3416 458.358,33.7212 458.15,33.5131 C457.651,33.0138 451.659,32.7641 449.328,33.1802 Z" style="stroke:none;fill-rule:evenodd;fill:#413000;fill-opacity:1;"/>
        </g>
        <g id="Shape12">
            <desc shapeID="12" type="0" basicInfo-basicType="0" basicInfo-roundedRectRadius="12" basicInfo-polygonSides="6" basicInfo-starPoints="5" bounding="rect(-44.3,-57.2292,88.6,114.458)" text="" font-familyName="" font-pixelSize="20" font-bold="0" font-underline="0" font-alignment="1" strokeStyle="0" markerStart="0" markerEnd="0" shadowEnabled="0" shadowOffsetX="0" shadowOffsetY="2" shadowBlur="4" shadowOpacity="160" blurEnabled="0" blurRadius="4" transform="matrix(0.416137,0,0,0.416137,478.999,56.7905)" pers-center="0,0" pers-size="0,0" pers-start="0,0" pers-end="0,0" locked="0" mesh="" flag=""/>
            <path id="shapePath12" d="M477.334,33.2218 C472.132,34.179 465.132,37.0944 462.853,43.5004 C461.427,47.5056 461.937,53.0716 464.434,55.9429 C466.182,57.9404 468.678,59.1056 475.462,61.1447 C484.991,64.016 485.823,64.7234 485.615,69.6339 C485.532,71.881 485.199,72.0474 480.955,71.9642 C476.169,71.9226 472.798,71.2568 472.299,70.3413 C472.091,69.9668 471.675,68.4687 471.425,67.0122 C471.134,65.5973 470.801,64.3489 470.634,64.2657 C467.35,63.8784 463.909,63.6293 460.564,63.0832 L460.689,71.9226 C460.689,71.9226 460.675,75.1474 461.151,76.6503 C461.434,77.5423 462.811,78.6224 462.811,78.6224 C466.681,80.1621 471.924,80.7447 479.54,80.5783 C485.407,80.4118 486.989,80.2453 488.778,79.5379 C492.357,78.123 494.937,75.9591 496.268,73.2542 C497.309,71.1319 497.434,70.4661 497.434,66.5128 C497.434,61.4359 496.934,59.6049 494.812,57.2746 C492.856,55.1107 489.818,53.6126 483.535,51.7816 C480.705,50.9493 477.667,49.8673 476.793,49.4512 C472.507,47.2457 473.214,43.6253 478.25,42.1688 C480.497,41.503 483.493,41.5862 484.7,42.3352 C484.949,42.5017 485.407,43.9582 485.699,45.5395 L486.24,48.4109 L491.4,48.5357 L496.518,48.6605 L496.227,41.8775 C496.102,38.1739 495.811,34.9696 495.644,34.8032 C494.396,33.5548 481.579,32.4728 477.334,33.2218 Z" style="stroke:none;fill-rule:evenodd;fill:#413000;fill-opacity:1;"/>
        </g>
        <g id="Shape13">
            <desc shapeID="13" type="0" basicInfo-basicType="0" basicInfo-roundedRectRadius="12" basicInfo-polygonSides="6" basicInfo-starPoints="5" bounding="rect(-61.4013,-56.5,122.803,113)" text="" font-familyName="" font-pixelSize="20" font-bold="0" font-underline="0" font-alignment="1" strokeStyle="0" markerStart="0" markerEnd="0" shadowEnabled="0" shadowOffsetX="0" shadowOffsetY="2" shadowBlur="4" shadowOpacity="160" blurEnabled="0" blurRadius="4" transform="matrix(0.416137,0,0,0.416137,393.024,57.982)" pers-center="0,0" pers-size="0,0" pers-start="0,0" pers-end="0,0" locked="0" mesh="" flag=""/>
            <path id="shapePath13" d="M368.005,35.0112 C367.525,37.2752 367.354,39.2288 367.557,41.3365 C367.682,41.6694 368.889,42.2104 370.262,42.6266 L372.801,43.334 L372.842,49.4096 C372.842,52.7387 373.009,59.2304 373.175,63.8079 C373.591,73.5039 374.215,75.8759 377.045,78.6224 C379.375,80.8696 381.747,81.4938 388.031,81.4938 C393.524,81.4938 396.728,80.7863 400.182,78.8305 C401.764,77.8734 401.93,77.8734 401.93,78.5392 C401.93,80.0789 402.929,80.3286 410.877,80.5783 L418.576,80.7863 L418.576,77.2076 C418.576,74.8356 418.409,73.5455 418.076,73.3375 C417.785,73.171 416.62,72.7965 415.455,72.5468 L413.374,72.0891 L413.124,54.4032 C412.999,44.7072 412.833,36.2597 412.791,35.5938 L412.75,34.4703 L396.104,34.7273 C396.104,34.7273 395.768,36.7007 395.688,37.8051 C395.628,38.633 395.688,39.7136 395.688,40.5043 C395.688,41.8359 395.771,41.9191 398.102,42.6682 L400.474,43.4172 L400.598,55.7349 L400.682,68.0942 L399.142,69.4258 C396.978,71.34 395.064,72.0475 391.943,72.0891 C388.655,72.1307 386.824,71.0903 386.075,68.6767 C385.784,67.7196 385.534,61.3111 385.409,51.2822 C385.285,42.5433 384.91,35.0112 384.91,35.0112 L368.005,35.0112 Z" style="stroke:none;fill-rule:evenodd;fill:#413000;fill-opacity:1;"/>
        </g>
    </g>
</svg>
